/* XPM */
static char *thunderbird[] = {
/* columns rows colors chars-per-pixel */
"32 32 181 2 ",
"   c #250A4A",
".  c #280B4F",
"X  c #200544",
"o  c #2A114C",
"O  c #281E61",
"+  c #2A236A",
"@  c #312063",
"#  c #2B337E",
"$  c #432E5E",
"%  c #472E62",
"&  c #444659",
"*  c #5D6257",
"=  c #6B5D7D",
"-  c #393B95",
";  c #40318A",
":  c #423D94",
">  c #2A4897",
",  c #3B4296",
"<  c #35439B",
"1  c #394599",
"2  c #364A9E",
"3  c #3A4A9C",
"4  c #336298",
"5  c #1F5EB8",
"6  c #2C4BA7",
"7  c #2F45A1",
"8  c #334DA2",
"9  c #3247A2",
"0  c #2551A5",
"q  c #2A53A3",
"w  c #2654AB",
"e  c #2658AD",
"r  c #2C55AB",
"t  c #3953A2",
"y  c #385AA6",
"u  c #375EA9",
"i  c #3451A3",
"p  c #2855B1",
"a  c #245BB4",
"s  c #225FBA",
"d  c #3664AD",
"f  c #3860AA",
"g  c #396BAE",
"h  c #2162BD",
"j  c #256ABD",
"k  c #2864B8",
"l  c #3567B0",
"z  c #346CB3",
"x  c #376CB4",
"c  c #2A74BF",
"v  c #2D7ABF",
"b  c #3470B6",
"n  c #3A7AB5",
"m  c #3374B9",
"M  c #3E71BC",
"N  c #367ABA",
"B  c #397CBA",
"V  c #3977B4",
"C  c #6E5F80",
"Z  c #40618B",
"A  c #426D9D",
"S  c #4D52A0",
"D  c #555FA7",
"F  c #5568A7",
"G  c #476FB5",
"H  c #4C76BC",
"J  c #616FA6",
"K  c #616CB2",
"L  c #607BBA",
"P  c #2267C0",
"I  c #246BC2",
"U  c #296EC2",
"Y  c #316FC2",
"T  c #2572C6",
"R  c #2A72C4",
"E  c #2279C6",
"W  c #2C7BC0",
"Q  c #2777C9",
"!  c #2D77C8",
"~  c #267CCB",
"^  c #2C7ACA",
"/  c #3076C0",
"(  c #307FC0",
")  c #337ECB",
"_  c #457AC2",
"`  c #507FC3",
"'  c #3687BF",
"]  c #3A8BBE",
"[  c #3A80B8",
"{  c #408CBF",
"}  c #7C86BD",
"|  c #1E93D1",
" . c #1A9FD5",
".. c #2484CB",
"X. c #2589CD",
"o. c #2E8ACD",
"O. c #2A84C4",
"+. c #3283C0",
"@. c #358AC1",
"#. c #388FC1",
"$. c #3383CE",
"%. c #3788CF",
"&. c #3B8BCC",
"*. c #3A87CD",
"=. c #3B94C6",
"-. c #228DD0",
";. c #378CD2",
":. c #388CD2",
">. c #3685D0",
",. c #3D95D6",
"<. c #3E98D7",
"1. c #3F99D8",
"2. c #25A2D4",
"3. c #408AC6",
"4. c #488CC0",
"5. c #5685C6",
"6. c #4F97C7",
"7. c #4799C9",
"8. c #5291CE",
"9. c #4494D3",
"0. c #4899D0",
"q. c #429DDA",
"w. c #4499D3",
"e. c #648AC9",
"r. c #7E8DC4",
"t. c #6694C7",
"y. c #45A3DD",
"u. c #59A2DB",
"i. c #63A3DA",
"p. c #70A8D6",
"a. c #47A7E0",
"s. c #A29BAB",
"d. c #AFAFAF",
"f. c #AEA9B3",
"g. c #9B93C0",
"h. c #9EA2CB",
"j. c #97A7D3",
"k. c #81B9D7",
"l. c #8EB3D9",
"z. c #9FB1D8",
"x. c #9FBADF",
"c. c #AFA6CA",
"v. c #A7B6D9",
"b. c #96C7DA",
"n. c #BEC6CC",
"m. c #AFC0DD",
"M. c #95CFE8",
"N. c #A1C1E0",
"B. c #B3C2E0",
"V. c #B2D6E5",
"C. c #BFE5F0",
"Z. c #C5C5C5",
"A. c #C2CFCE",
"S. c #CDCDCD",
"D. c #C4C4D7",
"F. c #D0CED3",
"G. c #CED7DC",
"H. c #D4D4D4",
"J. c #DBDBDB",
"K. c #D4D7D9",
"L. c #C0C8E0",
"P. c #C6D9EB",
"I. c #D7DFE1",
"U. c #DBDCEA",
"Y. c #D3DCEB",
"T. c #CBE2ED",
"R. c #DDE9EC",
"E. c #DAE5F1",
"W. c #DAEDF3",
"Q. c #E4E4E3",
"!. c #E2E5ED",
"~. c #ECECEC",
"^. c #E3EBF3",
"/. c #EBEEF4",
"(. c #EAF3F6",
"). c #F4F4F4",
"_. c #F2F5F8",
"`. c #F8F7F8",
"'. c #FAFAFA",
"]. c #F7F9FA",
"[. c None",
/* pixels */
"[.[.[.[.[.[.[.[.[.[.[.[.9.[.[.[.[.[.[.[.[.[.[.[.[.[.[.[.[.[.[.[.",
"[.[.[.[.[.[.[.[.[.[.a.w.3.&.%.) ! U P [.[.[.[.[.[.[.[.[.[.[.[.[.",
"[.[.[.[.[.[.[.[.[.y.y.q.,.;.$.^ R I h s s h [.[.[.[.[.[.[.[.[.[.",
"[.[.[.[.[.[.[.q &.y.q.,.>.%.^ R I h s h h h P h [.[.[.[.[.[.[.[.",
"[.[.[.[.[.[.w b y.1.,.;.>.^ T P h h h h h h h h h h [.[.[.[.[.[.",
"[.[.[.[.[.e k ,.y.<.;.o.) ! P s h s h h h h h P P P P [.[.[.[.[.",
"[.[.[.[.a h >.y.,.o.X.>.) I h s h h h h h h P P P P I P [.[.[.[.",
"[.[.[.a h I 1.1.o.E o.>.R P 5 a p a h P P P P I T Q Q Q h [.[.[.",
"[.[.a h k M w.&.4 4 &./ P s a 6 6 9 6 k I T T Q Q ~ ~ E h s [.[.",
"[.[.a h L B.u.N & * $.P 5 a p 6 9 < - 1 U ~ ~ ....-.E I j j [.[.",
"[.e 5 G D.).i.N A V Y e.v.v.j.g.K S : ; 8 ..X.| -...E j c c z [.",
"[.a k v.H.R.k.9./ 5.B.).].]._.`./.U.D.c.g.0.| | | T R c R W b [.",
"e h M E.).A.b.p.x.^.`.`.`.`.`.`.'.'.'.'.'.M. .....c v v v ' m [.",
"w 5 5./.'.R.b.^.'.'.'.`.`.'.`.`.`.`.`.`.'.C.2.v v v +.' ' B n 3 ",
"e 5 H /.'.'.K.Q.`.`.`.`.`.`.`.'.`.`.`.`.'.W.=.v ' ' @.' ] g g t ",
"e h v Y.'.'.).H.).`.`.`.`.`.`.`.`.'.`.).R.n.4.+.+.@.] B [ f u t ",
"w _ 8.N.'.'.'.~.H.).`.`.`.`.'.].`.Q.H.Z.F.G.6.] ] ] ] V g f f u ",
"w e.^.W.'.'.'.'.J.Q.'.'.'.`.~.K.S.F.Q.).'.^.6.=.B ] n d d f f f ",
"0 ` _.'.'.'.'.'.`.F.~.~.J.S.H.Q.).'.'.'.'.T.7.{ b n z l l d d f ",
"6 _ _.'.'.'.'.'.'.~.Z.S.J.~.'.'.'.'.'.'.'.V.b.t.z z z z z l d d ",
"[.g E.'.'.'.'.'.'.'.'.'.'.'.'.'.'.'.'.'.'._./.5.b z b z z z l d ",
"[.r B.'.'.'.'.'.'.'.'.].'.'.'.'.'.'.'.'.'.'.P./ b z b b b z z [.",
"[.q F s.H.~.'.'.'.'.'.'.'.'.'.'.'.'.'.'.'.].p.b y u m b b b z [.",
"[.[.> @ % = s.H.).'.'.'.'.'.'.'.'.'.'.'.'.T.l.F , z m z m b [.[.",
"[.[.[.# .   o % = f.J./.].'.'.'.'.'.'.'.'.].U.S u z y d N d [.[.",
"[.[.[.[.+     [.X o [.[.Z.J.~.`.'.'.'.'.'.'.h.1 t 1 t m d [.[.[.",
"[.[.[.[.[.O   [.[.[.[.[.[.[.d.Z.J.~.`.'.'.E.F - , 3 z y , [.[.[.",
"[.[.[.[.[.[.O   [.[.[.[.[.[.[.[.[.d.Z.J.!.} 3 1 1 1 1 , [.[.[.[.",
"[.[.[.[.[.[.[.[.[.[.[.[.[.[.[.[.[.[.[.[.J 3 3 1 1 1 1 [.[.[.[.[.",
"[.[.[.[.[.[.[.[.[.[.[.[.[.[.[.[.[.[.[.8 8 3 2 2 3 [.[.[.[.[.[.[.",
"[.[.[.[.[.[.[.[.[.[.[.[.[.[.[.[.[.[.t t [.8 8 [.[.[.[.[.[.[.[.[.",
"[.[.[.[.[.[.[.[.[.[.[.[.[.[.[.[.[.[.[.[.[.[.[.[.[.[.[.[.[.[.[.[."
};
