<?xml version="1.0" encoding="UTF-8"?>
<!-- Created with Inkscape (http://www.inkscape.org/) -->
<svg id="svg4532" width="64" height="64" version="1.1" xmlns="http://www.w3.org/2000/svg" xmlns:cc="http://creativecommons.org/ns#" xmlns:dc="http://purl.org/dc/elements/1.1/" xmlns:rdf="http://www.w3.org/1999/02/22-rdf-syntax-ns#" xmlns:xlink="http://www.w3.org/1999/xlink">
 <defs id="defs4534">
  <linearGradient id="linearGradient4015-9" x1="24" x2="24" y1="5" y2="37.992" gradientTransform="matrix(1.4103 0 0 1.4103 -2.1642 7.7223)" gradientUnits="userSpaceOnUse">
   <stop id="stop3252-4-0" style="stop-color:#fff" offset="0"/>
   <stop id="stop3254-4-8" style="stop-color:#fff;stop-opacity:.23529" offset=".063165"/>
   <stop id="stop3256-1-5" style="stop-color:#fff;stop-opacity:.15686" offset=".95056"/>
   <stop id="stop3258-8-3" style="stop-color:#fff;stop-opacity:.39216" offset="1"/>
  </linearGradient>
  <linearGradient id="linearGradient3107-996" x1="24" x2="24" y1="5" y2="43" gradientTransform="matrix(1.4324 0 0 1.4324 -2.3784 -2.3784)" gradientUnits="userSpaceOnUse">
   <stop id="stop3124" style="stop-color:#fff" offset="0"/>
   <stop id="stop3126" style="stop-color:#fff;stop-opacity:.23529" offset=".063165"/>
   <stop id="stop3128" style="stop-color:#fff;stop-opacity:.15686" offset=".95056"/>
   <stop id="stop3130" style="stop-color:#fff;stop-opacity:.39216" offset="1"/>
  </linearGradient>
  <linearGradient id="linearGradient4021-4" x1="19.567" x2="19.567" y1="38.228" y2="34.481" gradientTransform="matrix(1.4103 0 0 1.4103 -1.8461 -4.6666)" gradientUnits="userSpaceOnUse">
   <stop id="stop4028-6" style="stop-color:#ffeeb6" offset="0"/>
   <stop id="stop4030-7" style="stop-color:#feeeb7" offset="1"/>
  </linearGradient>
  <linearGradient id="linearGradient4018-0" x1="15" x2="15" y1="32" y2="6" gradientTransform="matrix(1.4211 0 0 1.434 -2.1053 -3.6038)" gradientUnits="userSpaceOnUse">
   <stop id="stop3911-8-7" style="stop-color:#fff0bf" offset="0"/>
   <stop id="stop3913-4-2" style="stop-color:#fdde76" offset="1"/>
  </linearGradient>
  <linearGradient id="linearGradient4009" x1="25.525" x2="25.525" y1="35.429" y2="15.738" gradientTransform="matrix(1.0363 0 0 .89404 7.1294 -1.5846)" gradientUnits="userSpaceOnUse" spreadMethod="reflect">
   <stop id="stop3868-7" style="stop-color:#969696" offset="0"/>
   <stop id="stop3872-0" style="stop-color:#858585;stop-opacity:.63478" offset=".5"/>
   <stop id="stop3870-0" style="stop-color:#939393;stop-opacity:0" offset="1"/>
  </linearGradient>
  <linearGradient id="linearGradient4012" x1="24" x2="24" y1="44" y2="3.899" gradientTransform="matrix(-1.4103 0 0 1.4103 65.854 -1.8461)" gradientUnits="userSpaceOnUse">
   <stop id="stop3858-7-5" style="stop-color:#b67926" offset="0"/>
   <stop id="stop3860-2-2" style="stop-color:#eab41a" offset="1"/>
  </linearGradient>
  <linearGradient id="linearGradient4027" x1="24" x2="24" y1="5" y2="43" gradientTransform="matrix(1.2162 0 0 .72973 2.8108 7.4865)" gradientUnits="userSpaceOnUse">
   <stop id="stop3252-06" style="stop-color:#fff" offset="0"/>
   <stop id="stop3254-1" style="stop-color:#fff;stop-opacity:.23529" offset=".063165"/>
   <stop id="stop3256-0" style="stop-color:#fff;stop-opacity:.15686" offset=".95056"/>
   <stop id="stop3258-2" style="stop-color:#fff;stop-opacity:.39216" offset="1"/>
  </linearGradient>
  <linearGradient id="linearGradient4030" x1="16.626" x2="20.055" y1="15.298" y2="24.628" gradientTransform="matrix(.97973 0 0 .994 8.4406 5.1683)" gradientUnits="userSpaceOnUse">
   <stop id="stop2687-1-9" style="stop-color:#fff" offset="0"/>
   <stop id="stop2689-5-4" style="stop-color:#fff;stop-opacity:0" offset="1"/>
  </linearGradient>
  <linearGradient id="linearGradient4033" x1="25.525" x2="25.525" y1="30.189" y2="15.738" gradientTransform="matrix(1.0363 0 0 .89404 7.1294 -3.5516)" gradientUnits="userSpaceOnUse" spreadMethod="reflect">
   <stop id="stop3335-4-6" style="stop-color:#fff" offset="0"/>
   <stop id="stop3337-7-2" style="stop-color:#fff;stop-opacity:0" offset="1"/>
  </linearGradient>
  <linearGradient id="linearGradient4036" x1="23.904" x2="23.904" y1="35.75" y2="20.443" gradientTransform="matrix(1.0342 0 0 .95412 7.2784 -1.3574)" gradientUnits="userSpaceOnUse">
   <stop id="stop3497" offset="0"/>
   <stop id="stop3874" style="stop-opacity:.49804" offset=".5"/>
   <stop id="stop3499" style="stop-opacity:0" offset="1"/>
  </linearGradient>
  <linearGradient id="linearGradient4039" x1="25.525" x2="25.525" y1="30.189" y2="15.738" gradientTransform="matrix(1.0363 0 0 .89404 7.1294 .078135)" gradientUnits="userSpaceOnUse" spreadMethod="reflect">
   <stop id="stop3335-4" style="stop-color:#fff" offset="0"/>
   <stop id="stop3337-7" style="stop-color:#fff;stop-opacity:0" offset="1"/>
  </linearGradient>
  <linearGradient id="linearGradient4042" x1="25.525" x2="25.525" y1="30.189" y2="15.738" gradientTransform="matrix(1.0363 0 0 .89404 7.1294 -1.5846)" gradientUnits="userSpaceOnUse" spreadMethod="reflect">
   <stop id="stop3868" style="stop-color:#a0a0a0" offset="0"/>
   <stop id="stop3872" style="stop-color:#8f8f8f;stop-opacity:.63478" offset=".5"/>
   <stop id="stop3870" style="stop-color:#9d9d9d;stop-opacity:0" offset="1"/>
  </linearGradient>
  <linearGradient id="linearGradient4045" x1="20.053" x2="20.053" y1="10.637" y2="45.244" gradientTransform="matrix(1.0222 0 0 .84848 7.4667 1.2424)" gradientUnits="userSpaceOnUse">
   <stop id="stop3602" style="stop-color:#f4f4f4" offset="0"/>
   <stop id="stop3604" style="stop-color:#dbdbdb" offset="1"/>
  </linearGradient>
  <radialGradient id="radialGradient4052-2" cx="19.74" cy="8.4498" r="20" gradientTransform="matrix(5.3772e-8 2.1661 -1.5883 0 45.421 -.33887)" gradientUnits="userSpaceOnUse">
   <stop id="stop3848-3" style="stop-color:#fff3cb" offset="0"/>
   <stop id="stop3850-6" style="stop-color:#fdde76" offset=".26238"/>
   <stop id="stop3852-8" style="stop-color:#f9c440" offset=".66094"/>
   <stop id="stop3854-1" style="stop-color:#e48b20" offset="1"/>
  </radialGradient>
  <linearGradient id="linearGradient4054-2" x1="24" x2="24" y1="44" y2="3.899" gradientTransform="matrix(1.4103 0 0 1.4103 -1.8462 -1.8461)" gradientUnits="userSpaceOnUse">
   <stop id="stop3858-3" style="stop-color:#b67926" offset="0"/>
   <stop id="stop3860-4" style="stop-color:#eab41a" offset="1"/>
  </linearGradient>
  <radialGradient id="radialGradient2873-966-168-714" cx="4.993" cy="43.5" r="2.5" gradientTransform="matrix(2.0038 0 0 1.4 27.988 -17.4)" gradientUnits="userSpaceOnUse">
   <stop id="stop3088" style="stop-color:#181818" offset="0"/>
   <stop id="stop3090" style="stop-color:#181818;stop-opacity:0" offset="1"/>
  </radialGradient>
  <radialGradient id="radialGradient2875-742-326-419" cx="4.993" cy="43.5" r="2.5" gradientTransform="matrix(2.0038 0 0 1.4 -20.012 -104.4)" gradientUnits="userSpaceOnUse">
   <stop id="stop3094" style="stop-color:#181818" offset="0"/>
   <stop id="stop3096" style="stop-color:#181818;stop-opacity:0" offset="1"/>
  </radialGradient>
  <linearGradient id="linearGradient2877-634-617-908" x1="25.058" x2="25.058" y1="47.028" y2="39.999" gradientUnits="userSpaceOnUse">
   <stop id="stop3100" style="stop-color:#181818;stop-opacity:0" offset="0"/>
   <stop id="stop3102" style="stop-color:#181818" offset=".5"/>
   <stop id="stop3104" style="stop-color:#181818;stop-opacity:0" offset="1"/>
  </linearGradient>
 </defs>
 <metadata id="metadata4537">
  <rdf:RDF>
   <cc:Work rdf:about="">
    <dc:format>image/svg+xml</dc:format>
    <dc:type rdf:resource="http://purl.org/dc/dcmitype/StillImage"/>
    <dc:title/>
   </cc:Work>
  </rdf:RDF>
 </metadata>
 <g id="layer1">
  <g id="g2036" transform="matrix(1.5 0 0 .55556 -4 35.889)">
   <g id="g3712" transform="matrix(1.0526 0 0 1.2857 -1.2632 -13.429)" style="opacity:.4">
    <rect id="rect2801" x="38" y="40" width="5" height="7" style="fill:url(#radialGradient2873-966-168-714)"/>
    <rect id="rect3696" transform="scale(-1)" x="-10" y="-47" width="5" height="7" style="fill:url(#radialGradient2875-742-326-419)"/>
    <rect id="rect3700" x="10" y="40" width="28" height="7" style="fill:url(#linearGradient2877-634-617-908)"/>
   </g>
  </g>
  <rect id="rect5505-21" x="4.5" y="4.5" width="55" height="55" rx="3" ry="3" style="color:#000000;fill:url(#radialGradient4052-2);stroke-linecap:round;stroke-linejoin:round;stroke:url(#linearGradient4054-2)"/>
  <path id="rect4813" d="m16 39.062v2.9375h3v4.0938h26v-4.0938h3v-2.9375h-3-26-3z" style="color:#000000;fill:#b3b3b3"/>
  <path id="path4815" d="m19.012 43.5h25.977" style="fill:none;opacity:.2;stroke-width:1px;stroke:#000"/>
  <path id="path4815-2" d="m19.308 45.397h25.385" style="fill:none;opacity:.17;stroke-width:1px;stroke:#000"/>
  <rect id="rect2396-9-0" x="9" y="11" width="46" height="29" rx="2.8205" ry="2.8205" style="fill-rule:evenodd;fill:#8f8f8f"/>
  <rect id="rect2396-9" x="9" y="11" width="46" height="28" rx="1.4103" ry="1.4103" style="fill-rule:evenodd;fill:url(#linearGradient4045)"/>
  <path id="path3341-2" d="m26.463 25.683-13.965 12.188zm11.108 0.05587 14.062 11.908z" style="fill:none;stroke:url(#linearGradient4042)"/>
  <path id="path3341-2-6" d="m26.463 27.346-12.796 11zm11.108 0.05587 12.763 10.944z" style="fill:none;opacity:.7;stroke:url(#linearGradient4039)"/>
  <path id="path3493" d="m15.899 19.072 16.201 12.517 16.002-12.517" style="fill:none;opacity:.06;stroke:url(#linearGradient4036)"/>
  <path id="path3926" d="m10.484 11.077 21.517 16.662 21.842-16.774" style="fill:none;opacity:.7;stroke:url(#linearGradient4033)"/>
  <path id="path3333" d="m10.978 10.846c-0.8066 0-1.5423 0.44556-1.5423 1.1235l0.015 17.21c1.2982-0.01846 44.128-6.758 45.113-7.0822v-9.9085c0-0.51822-0.67945-1.3426-1.3779-1.3426z" style="fill-rule:evenodd;fill:url(#linearGradient4030);opacity:.2"/>
  <rect id="rect6741-1-5" x="9.5" y="11.5" width="45" height="27" rx=".70513" ry=".70513" style="fill:none;stroke-linecap:round;stroke-linejoin:round;stroke:url(#linearGradient4027)"/>
  <path id="path7715" d="m8.9365 8.5c-0.46399 0-0.43646 0.042275-0.43646 0.3802v28.78c0 0.62714-0.080492 0.83965 0.74462 0.83965h7.3135c1.7407 0 2.9419 1.3514 2.9419 3.2618v3.7382h25v-4.2094c0-1.4082 1.3584-2.7906 2.7627-2.7906h7.7381c0.5107 0 0.4992-0.015528 0.4992-0.52342v-29.114c0-0.48951-0.021269-0.36288-0.45575-0.36288z" style="color:#000000;fill:none;opacity:.3;stroke:#b67926"/>
  <rect id="rect2396-9-3" x="8.5" y="10.5" width="47" height="29" rx="2.1154" ry="2.1154" style="fill:none;opacity:.1;stroke:#000"/>
  <path id="rect4076-3" d="m56.905 42.569c1.3494-0.07349 2.5212-1.2453 2.5947-2.5947m-14.062 6.8336v-4.0986c0-0.07813 0.05408-0.13221 0.13221-0.13221h10.985m-11.126 3.4375v0.79327c0 1.5626-1.2903 2.6923-2.8529 2.6923h-21.154c-1.5626 0-2.857-1.1298-2.857-2.6923v-4.0986c0-0.07813-0.05408-0.13221-0.13221-0.13221 0 0-9.7949 0.01058-11.331-0.0082-1.3494-0.07349-2.5212-1.2453-2.5947-2.5947" style="color:#000000;fill:none;opacity:.1;stroke-linecap:round;stroke-linejoin:round;stroke:url(#linearGradient4012)"/>
  <path id="path3341-2-2" d="m10.484 13.044 21.517 16.662 21.842-16.774" style="fill:none;stroke:url(#linearGradient4009)"/>
  <path id="path4246" d="m7.5 5c-1.385 0-2.5 1.115-2.5 2.5v32c0 1.385 1.115 2.5 2.5 2.5h2.5625 3.9062 5.0312v-0.5c0-1.385-1.115-2.5-2.5-2.5h-2.4375-1.5-4.0625c-0.277 0-0.5-0.223-0.5-0.5v-30c0-0.277 0.223-0.5 0.5-0.5h47c0.277 0 0.5 0.223 0.5 0.5v30c0 0.277-0.223 0.5-0.5 0.5h-4.0625-3.9375c-1.385 0-2.5 1.115-2.5 2.5v0.5h8.9375 2.5625c1.385 0 2.5-1.115 2.5-2.5v-32c0-1.385-1.115-2.5-2.5-2.5h-49z" style="color:#000000;fill:url(#linearGradient4018-0)"/>
  <path id="rect4115" d="m19 43.5v3c0 1.385 1.115 2.5 2.5 2.5h21c1.385 0 2.5-1.115 2.5-2.5v-3c0 1.385-1.115 2.5-2.5 2.5h-21c-1.385 0-2.5-1.115-2.5-2.5z" style="color:#000000;fill:url(#linearGradient4021-4)"/>
  <rect id="rect6741" x="5.5" y="5.5" width="53" height="53" rx="2" ry="2" style="fill:none;opacity:.8;stroke-linecap:round;stroke-linejoin:round;stroke:url(#linearGradient3107-996)"/>
  <path id="path4815-8" d="m19.012 41.5h25.977" style="fill:none;opacity:.2;stroke-width:1px;stroke:#000"/>
  <path id="rect4076-3-16" d="m56.905 43.569c0.28193-0.01535 0.55611-0.07865 0.81414-0.1815m-51.465-0.013885c0.26792 0.11103 0.55386 0.17934 0.84825 0.19537 1.5361 0.01878 10.331 0.0082 10.331 0.0082 0.07813 0 0.13221 0.05408 0.13221 0.13221v3.4992c0 1.5626 1.8393 3.2919 3.4019 3.2919h22.163c1.5626 0 3.2985-1.7539 3.2985-3.3164l0.0082-3.4746c0-0.07813 0.05408-0.13221 0.13221-0.13221h9.9848" style="color:#000000;fill:none;stroke-linecap:round;stroke-linejoin:round;stroke:url(#linearGradient4015-9)"/>
 </g>
</svg>
